<?xml version="1.0" encoding="UTF-8"?>
<svg version="1.1" xmlns="http://www.w3.org/2000/svg" width="1472" height="832">
<path d="M0 0 C11.16733259 8.65886354 17.03840455 20.05430818 19.34765625 33.8203125 C20.65060892 46.54641185 17.13252119 58.26266637 9.41015625 68.3515625 C2.11590415 77.00046141 -7.19597023 84.19830043 -18.65234375 85.8203125 C-34.64673994 87.01989221 -47.20090002 85.14720046 -60.03515625 74.921875 C-69.76949802 66.04547522 -74.82459841 54.16712931 -75.86328125 41.18359375 C-76.36812198 27.57231107 -71.6732951 15.09433134 -62.46484375 5.0078125 C-44.96043628 -11.00852454 -19.87417127 -12.86165881 0 0 Z M-52.65234375 18.8203125 C-58.1794229 25.8908579 -60.72150625 33.80645016 -59.65234375 42.8203125 C-57.62398481 52.35508009 -53.24202342 59.65276216 -45.65234375 65.8203125 C-37.23689037 70.92804654 -28.80423729 71.59453577 -19.296875 69.61328125 C-10.50398006 66.97671157 -4.31404964 60.59051488 0.27734375 52.8515625 C3.9130774 45.95163002 4.44366496 38.53249364 2.6953125 31.015625 C-0.58590254 20.84808312 -6.25714343 15.16975119 -15.41796875 9.94921875 C-28.3747649 3.40286545 -43.33222385 8.71559067 -52.65234375 18.8203125 Z " fill="#FEFEFE" transform="translate(818.65234375,261.1796875)"/>
<path d="M0 0 C12.75603691 -0.60082783 23.74574389 4.33975684 34.03125 11.3984375 C44.17270977 21.53989727 49.60403284 33.01171046 50.09375 47.3359375 C49.91580701 60.46813049 44.97148418 72.70221406 35.84375 82.2109375 C29.19274688 87.61272371 22.3106909 92.35445661 13.84375 94.2109375 C12.874375 94.4378125 11.905 94.6646875 10.90625 94.8984375 C-4.57712683 96.47837391 -17.17578351 92.85711465 -29.578125 83.46875 C-38.92005814 75.28748128 -44.38965026 62.91137271 -45.359375 50.640625 C-45.61788872 36.55162702 -41.22908692 24.36687846 -31.65625 13.9609375 C-22.81236522 5.59654045 -12.04849871 1.17865748 0 0 Z M-23.1171875 28.421875 C-28.16189025 35.43524224 -30.19964861 43.61532039 -29.15625 52.2109375 C-27.2348689 61.23658486 -22.73037461 68.60846905 -15.34375 74.1484375 C-7.39504087 79.30435693 0.80399724 80.0945177 10.09375 78.7109375 C18.00440592 76.77722161 24.74823259 71.26624492 29.40625 64.7109375 C34.33736047 56.41189278 35.11636668 47.52257562 32.78125 38.2109375 C30.01428213 29.92290351 24.55696377 23.89732384 17.171875 19.36328125 C2.72785057 12.21397385 -12.75051679 16.73355703 -23.1171875 28.421875 Z " fill="#FEFEFE" transform="translate(663.15625,364.7890625)"/>
<path d="M0 0 C7.32825719 -0.05106598 14.65646782 -0.08588607 21.98486328 -0.10986328 C24.4734875 -0.11986813 26.96210012 -0.13347622 29.45068359 -0.15087891 C33.04527667 -0.17537112 36.63971317 -0.18653864 40.234375 -0.1953125 C41.33174988 -0.20563507 42.42912476 -0.21595764 43.55975342 -0.22659302 C55.38872402 -0.22827847 66.96694662 0.47420388 76.00390625 8.859375 C82.74816491 16.12458893 85.32409752 23.74955427 85.14453125 33.609375 C84.65636261 41.68394819 82.31239283 47.81577027 77 54 C74.47047406 56.23784148 71.82866476 58.16046322 69 60 C68.01 60.66 67.02 61.32 66 62 C66.35191406 62.51272461 66.70382812 63.02544922 67.06640625 63.55371094 C70.49888967 68.55680199 73.92522844 73.56404099 77.34521484 78.57568359 C78.36269496 80.06632649 79.38105264 81.55637139 80.40087891 83.04541016 C81.54279043 84.71456469 82.67797826 86.38831387 83.8125 88.0625 C84.75029297 89.44115234 84.75029297 89.44115234 85.70703125 90.84765625 C87 93 87 93 87 95 C66.85481658 98.39364114 66.85481658 98.39364114 59.46936035 93.23101807 C53.83909809 87.41495247 50.04066332 80.33565194 46.125 73.3125 C44.87553085 71.22999738 43.61776595 69.15244854 42.3515625 67.08007812 C39.56363304 62.48027029 36.86580658 57.83894769 34.222229 53.15493774 C32.85531616 50.74490488 31.44349907 48.36492749 30 46 C30.62455078 45.9906543 31.24910156 45.98130859 31.89257812 45.97167969 C34.7624763 45.91751063 37.63082485 45.83395805 40.5 45.75 C41.97339844 45.72873047 41.97339844 45.72873047 43.4765625 45.70703125 C50.02950828 45.48859972 54.40438764 44.47782851 60 41 C62.46068527 37.20644355 62.39624567 33.43795146 62 29 C60.17370995 24.77069672 58.07515723 23.03490064 54 21 C50.91381105 20.50132642 50.91381105 20.50132642 47.60546875 20.48828125 C46.40341797 20.45283203 45.20136719 20.41738281 43.96289062 20.38085938 C42.71701172 20.35830078 41.47113281 20.33574219 40.1875 20.3125 C38.92228516 20.27833984 37.65707031 20.24417969 36.35351562 20.20898438 C33.23598641 20.12663455 30.11800749 20.0616375 27 20 C27 26.6 27 33.2 27 40 C21.37386333 34.37386333 21.37386333 34.37386333 19.4128418 31.43481445 C18.97276291 30.78096268 18.53268402 30.1271109 18.07926941 29.45344543 C17.39614433 28.41881416 17.39614433 28.41881416 16.69921875 27.36328125 C16.2179805 26.64262985 15.73674225 25.92197845 15.24092102 25.17948914 C14.23227733 23.66603645 13.22647494 22.15068667 12.22338867 20.63354492 C10.682151 18.30441655 9.12985064 15.98295224 7.57617188 13.66210938 C6.59569046 12.18794122 5.61584965 10.71334675 4.63671875 9.23828125 C4.17118088 8.54245438 3.70564301 7.8466275 3.22599792 7.12971497 C0 2.23051798 0 2.23051798 0 0 Z " fill="#FFFFFF" transform="translate(747,365)"/>
<path d="M0 0 C0.6703125 0.25523437 1.340625 0.51046875 2.03125 0.7734375 C13.13009165 5.57412694 21.45181809 15.54197228 26.05859375 26.5234375 C28.09194355 32.38026324 29.14058127 37.90807419 29.125 44.125 C29.12886719 45.67574219 29.12886719 45.67574219 29.1328125 47.2578125 C29 50 29 50 28 53 C22.39 53 16.78 53 11 53 C11.33 51.35 11.66 49.7 12 48 C12.62891906 38.72344386 10.48735013 30.91076731 4.51953125 23.6796875 C-0.8646634 17.72800704 -7.64251914 14.82044117 -15.55078125 13.609375 C-23.94792519 13.23438293 -31.80467493 15.90085055 -38.375 21.125 C-44.6354805 27.08981099 -47.58338409 34.68814718 -48.25 43.1875 C-47.75211418 50.7802587 -45.46064103 56.90379059 -41 63 C-40.67 63.99 -40.34 64.98 -40 66 C-38.28480253 67.02651373 -38.28480253 67.02651373 -36 68 C-34.25074542 69.01700847 -32.51456005 70.05373088 -30.78125 71.09765625 C-23.86266609 74.60246521 -13.77551107 74.22983618 -6.5703125 71.8828125 C-3.99358309 70.69818625 -1.48709977 69.36279439 1 68 C1 74.27 1 80.54 1 87 C-8.02197285 90.38323982 -8.02197285 90.38323982 -11.98828125 90.43359375 C-13.28717285 90.45075439 -13.28717285 90.45075439 -14.61230469 90.46826172 C-15.94890137 90.45303467 -15.94890137 90.45303467 -17.3125 90.4375 C-18.24094727 90.42992676 -19.16939453 90.42235352 -20.12597656 90.41455078 C-32.39681558 90.11972354 -41.69898847 85.7281923 -50.75 77.5 C-51.86375 76.2625 -51.86375 76.2625 -53 75 C-53.825 74.13375 -54.65 73.2675 -55.5 72.375 C-63.31677788 62.78280254 -66.04417563 50.08959602 -65 38 C-62.7076185 24.01289102 -55.85784423 12.83015891 -44.5625 4.125 C-31.73431036 -4.30751627 -14.14039769 -5.89183237 0 0 Z " fill="#FFFFFF" transform="translate(683,256)"/>
<path d="M0 0 C4.29 0 8.58 0 13 0 C13.06961115 10.17938157 13.1228677 20.35870621 13.15543652 30.53827763 C13.17107052 35.26543162 13.19226733 39.99242237 13.22631836 44.71948242 C13.25899271 49.28416479 13.27687005 53.84869044 13.28463173 58.41348076 C13.29016076 60.15214949 13.30095761 61.89080996 13.31719017 63.6294117 C13.33907208 66.07091716 13.34196248 68.51178088 13.34057617 70.95336914 C13.351362 71.66691055 13.36214783 72.38045197 13.3732605 73.11561584 C13.34217589 78.19846158 12.29869322 81.56180642 10 86 C4.60862612 91.24949562 -0.48848554 92.30019117 -7.81958008 92.22705078 C-8.59084229 92.22734283 -9.36210449 92.22763489 -10.15673828 92.22793579 C-12.69445219 92.22654752 -15.23186891 92.21101015 -17.76953125 92.1953125 C-19.53358296 92.19158058 -21.29763675 92.18873445 -23.06169128 92.18673706 C-27.69609335 92.1791147 -32.33036931 92.15947821 -36.96472168 92.1373291 C-41.69716689 92.11684057 -46.42963256 92.10772891 -51.16210938 92.09765625 C-60.44146154 92.076231 -69.72072027 92.04211192 -79 92 C-79 87.71 -79 83.42 -79 79 C-52.93 79 -26.86 79 0 79 C0 52.93 0 26.86 0 0 Z " fill="#FFFFFF" transform="translate(849,402)"/>
<path d="M0 0 C3.96 0 7.92 0 12 0 C12 26.07 12 52.14 12 79 C38.4 79 64.8 79 92 79 C92 83.29 92 87.58 92 92 C81.67296321 92.06956765 71.34598234 92.12284568 61.01875877 92.15543652 C56.22319628 92.17107997 51.42779433 92.19229416 46.63232422 92.22631836 C42.00280813 92.25895885 37.3734463 92.27686295 32.74382401 92.28463173 C30.97920937 92.29016681 29.21460299 92.30097554 27.45005417 92.31719017 C24.97481922 92.33902695 22.50021841 92.34196434 20.02490234 92.34057617 C19.29841492 92.351362 18.57192749 92.36214783 17.82342529 92.3732605 C12.46148827 92.34080786 8.36028715 91.15285099 4.35546875 87.5 C0.32971212 82.32979751 -0.14454743 78.67727769 -0.11352539 72.31567383 C-0.11374443 71.14458824 -0.11374443 71.14458824 -0.1139679 69.94984436 C-0.11327114 67.36887841 -0.10548982 64.7879846 -0.09765625 62.20703125 C-0.09579123 60.41769958 -0.09436772 58.6283674 -0.09336853 56.83903503 C-0.08954999 52.12902416 -0.07972533 47.41904411 -0.06866455 42.70904541 C-0.05843621 37.90303972 -0.05386786 33.09702906 -0.04882812 28.29101562 C-0.03810249 18.86066354 -0.02103399 9.43033433 0 0 Z " fill="#FFFFFF" transform="translate(595,402)"/>
<path d="M0 0 C10.32703679 -0.06956765 20.65401766 -0.12284568 30.98124123 -0.15543652 C35.77680372 -0.17107997 40.57220567 -0.19229416 45.36767578 -0.22631836 C49.99719187 -0.25895885 54.6265537 -0.27686295 59.25617599 -0.28463173 C61.02079063 -0.29016681 62.78539701 -0.30097554 64.54994583 -0.31719017 C67.02518078 -0.33902695 69.49978159 -0.34196434 71.97509766 -0.34057617 C72.70158508 -0.351362 73.42807251 -0.36214783 74.17657471 -0.3732605 C79.53851173 -0.34080786 83.63971285 0.84714901 87.64453125 4.5 C91.67028788 9.67020249 92.14454743 13.32272231 92.11352539 19.68432617 C92.11367142 20.4650499 92.11381744 21.24577362 92.1139679 22.05015564 C92.11327114 24.63112159 92.10548982 27.2120154 92.09765625 29.79296875 C92.09579123 31.58230042 92.09436772 33.3716326 92.09336853 35.16096497 C92.08954999 39.87097584 92.07972533 44.58095589 92.06866455 49.29095459 C92.05843621 54.09696028 92.05386786 58.90297094 92.04882812 63.70898438 C92.03810249 73.13933646 92.02103399 82.56966567 92 92 C87.71 92 83.42 92 79 92 C79 65.6 79 39.2 79 12 C52.93 12 26.86 12 0 12 C0 8.04 0 4.08 0 0 Z " fill="#FFFFFF" transform="translate(770,227)"/>
<path d="M0 0 C0.78072372 -0.00014603 1.56144745 -0.00029205 2.36582947 -0.0004425 C4.94679542 0.00025425 7.52768923 0.00803557 10.10864258 0.01586914 C11.89797425 0.01773416 13.68730643 0.01915767 15.47663879 0.02015686 C20.18664967 0.02397541 24.89662972 0.03380006 29.60662842 0.04486084 C34.4126341 0.05508918 39.21864477 0.05965754 44.0246582 0.06469727 C53.45501029 0.0754229 62.8853395 0.0924914 72.31567383 0.11352539 C72.31567383 4.07352539 72.31567383 8.03352539 72.31567383 12.11352539 C45.91567383 12.11352539 19.51567383 12.11352539 -7.68432617 12.11352539 C-7.68432617 38.51352539 -7.68432617 64.91352539 -7.68432617 92.11352539 C-11.64432617 92.11352539 -15.60432617 92.11352539 -19.68432617 92.11352539 C-19.77707882 81.65613774 -19.84811797 71.19884824 -19.89157486 60.74113274 C-19.91243392 55.8849724 -19.94072088 51.02909387 -19.98608398 46.1730957 C-20.02960168 41.48521283 -20.05347593 36.79760071 -20.06383514 32.1095314 C-20.07121588 30.32256942 -20.08562888 28.53562195 -20.1072464 26.74877548 C-20.13635962 24.24226821 -20.14027894 21.73687424 -20.13842773 19.23022461 C-20.15280884 18.49438644 -20.16718994 17.75854828 -20.18200684 17.00041199 C-20.14130239 11.89412928 -18.87183591 9.05682183 -15.68432617 5.11352539 C-10.5535739 0.48333431 -6.70228912 -0.03268338 0 0 Z " fill="#FFFFFF" transform="translate(614.684326171875,226.886474609375)"/>
<path d="M0 0 C10.56 0 21.12 0 32 0 C32 10.56 32 21.12 32 32 C21.44 32 10.88 32 0 32 C0 21.44 0 10.88 0 0 Z " fill="#FFFEFE" transform="translate(743,428)"/>
<path d="M0 0 C7.59 0 15.18 0 23 0 C23 7.26 23 14.52 23 22 C15.41 22 7.82 22 0 22 C0 14.74 0 7.48 0 0 Z " fill="#FFFFFF" transform="translate(689,315)"/>
<path d="M0 0 C4.62 0 9.24 0 14 0 C14 4.95 14 9.9 14 15 C9.38 15 4.76 15 0 15 C0 10.05 0 5.1 0 0 Z " fill="#FFFFFF" transform="translate(719,335)"/>
</svg>
